<?xml version="1.0" encoding="UTF-8" standalone="no"?>
<!DOCTYPE svg PUBLIC "-//W3C//DTD SVG 1.1//EN"
 "http://www.w3.org/Graphics/SVG/1.1/DTD/svg11.dtd">
<!-- Generated by graphviz version 2.43.0 (0)
 -->
<!-- Title: G Pages: 1 -->
<svg width="306pt" height="440pt"
 viewBox="0.00 0.00 306.00 440.00" xmlns="http://www.w3.org/2000/svg" xmlns:xlink="http://www.w3.org/1999/xlink">
<g id="graph0" class="graph" transform="scale(1 1) rotate(0) translate(4 436)">
<title>G</title>
<polygon fill="white" stroke="transparent" points="-4,4 -4,-436 302,-436 302,4 -4,4"/>
<!-- A -->
<g id="node1" class="node">
<title>A</title>
<polygon fill="none" stroke="black" points="254,-432 44,-432 44,-379 254,-379 254,-432"/>
<text text-anchor="middle" x="149" y="-416.8" font-family="Times,serif" font-size="14.00">Merge input sections </text>
<text text-anchor="middle" x="149" y="-401.8" font-family="Times,serif" font-size="14.00"> based on rules and create </text>
<text text-anchor="middle" x="149" y="-386.8" font-family="Times,serif" font-size="14.00"> missing output sections</text>
</g>
<!-- B -->
<g id="node2" class="node">
<title>B</title>
<polygon fill="none" stroke="black" points="226.5,-343 71.5,-343 71.5,-307 226.5,-307 226.5,-343"/>
<text text-anchor="middle" x="149" y="-321.3" font-family="Times,serif" font-size="14.00">UserPlugin::Init(...)</text>
</g>
<!-- A&#45;&gt;B -->
<g id="edge1" class="edge">
<title>A&#45;&gt;B</title>
<path fill="none" stroke="black" d="M149,-378.8C149,-370.71 149,-361.76 149,-353.55"/>
<polygon fill="black" stroke="black" points="152.5,-353.33 149,-343.33 145.5,-353.33 152.5,-353.33"/>
</g>
<!-- C -->
<g id="node3" class="node">
<title>C</title>
<polygon fill="none" stroke="black" points="298,-271 0,-271 0,-218 298,-218 298,-271"/>
<text text-anchor="middle" x="149" y="-255.8" font-family="Times,serif" font-size="14.00">Call </text>
<text text-anchor="middle" x="149" y="-240.8" font-family="Times,serif" font-size="14.00"> UserPlugin::ProcessOutputSection(...) </text>
<text text-anchor="middle" x="149" y="-225.8" font-family="Times,serif" font-size="14.00"> for each input section</text>
</g>
<!-- B&#45;&gt;C -->
<g id="edge2" class="edge">
<title>B&#45;&gt;C</title>
<path fill="none" stroke="black" d="M149,-306.97C149,-299.45 149,-290.31 149,-281.4"/>
<polygon fill="black" stroke="black" points="152.5,-281.16 149,-271.16 145.5,-281.16 152.5,-281.16"/>
</g>
<!-- D -->
<g id="node4" class="node">
<title>D</title>
<polygon fill="none" stroke="black" points="226.5,-182 71.5,-182 71.5,-146 226.5,-146 226.5,-182"/>
<text text-anchor="middle" x="149" y="-160.3" font-family="Times,serif" font-size="14.00">UserPlugin::run(...)</text>
</g>
<!-- C&#45;&gt;D -->
<g id="edge3" class="edge">
<title>C&#45;&gt;D</title>
<path fill="none" stroke="black" d="M149,-217.8C149,-209.71 149,-200.76 149,-192.55"/>
<polygon fill="black" stroke="black" points="152.5,-192.33 149,-182.33 145.5,-192.33 152.5,-192.33"/>
</g>
<!-- E -->
<g id="node5" class="node">
<title>E</title>
<polygon fill="none" stroke="black" points="242,-110 56,-110 56,-74 242,-74 242,-110"/>
<text text-anchor="middle" x="149" y="-88.3" font-family="Times,serif" font-size="14.00">UserPlugin::Destroy(...)</text>
</g>
<!-- D&#45;&gt;E -->
<g id="edge4" class="edge">
<title>D&#45;&gt;E</title>
<path fill="none" stroke="black" d="M149,-145.7C149,-137.98 149,-128.71 149,-120.11"/>
<polygon fill="black" stroke="black" points="152.5,-120.1 149,-110.1 145.5,-120.1 152.5,-120.1"/>
</g>
<!-- F -->
<g id="node6" class="node">
<title>F</title>
<polygon fill="none" stroke="black" points="234.5,-38 63.5,-38 63.5,0 234.5,0 234.5,-38"/>
<text text-anchor="middle" x="149" y="-22.8" font-family="Times,serif" font-size="14.00">Complete processing </text>
<text text-anchor="middle" x="149" y="-7.8" font-family="Times,serif" font-size="14.00"> of output sections</text>
</g>
<!-- E&#45;&gt;F -->
<g id="edge5" class="edge">
<title>E&#45;&gt;F</title>
<path fill="none" stroke="black" d="M149,-73.81C149,-66.11 149,-56.82 149,-48.15"/>
<polygon fill="black" stroke="black" points="152.5,-48.02 149,-38.02 145.5,-48.02 152.5,-48.02"/>
</g>
</g>
</svg>
