<?xml version="1.0" encoding="UTF-8" standalone="no"?>
<!DOCTYPE svg PUBLIC "-//W3C//DTD SVG 1.1//EN"
 "http://www.w3.org/Graphics/SVG/1.1/DTD/svg11.dtd">
<!-- Generated by graphviz version 2.43.0 (0)
 -->
<!-- Title: G Pages: 1 -->
<svg width="1047pt" height="61pt"
 viewBox="0.00 0.00 1047.00 61.00" xmlns="http://www.w3.org/2000/svg" xmlns:xlink="http://www.w3.org/1999/xlink">
<g id="graph0" class="graph" transform="scale(1 1) rotate(0) translate(4 57)">
<title>G</title>
<polygon fill="white" stroke="transparent" points="-4,4 -4,-57 1043,-57 1043,4 -4,4"/>
<!-- A -->
<g id="node1" class="node">
<title>A</title>
<polygon fill="none" stroke="black" points="129,-45.5 0,-45.5 0,-7.5 129,-7.5 129,-45.5"/>
<text text-anchor="middle" x="64.5" y="-30.3" font-family="Times,serif" font-size="14.00">Finalize output </text>
<text text-anchor="middle" x="64.5" y="-15.3" font-family="Times,serif" font-size="14.00"> image layout</text>
</g>
<!-- B -->
<g id="node2" class="node">
<title>B</title>
<polygon fill="none" stroke="black" points="296,-44.5 165,-44.5 165,-8.5 296,-8.5 296,-44.5"/>
<text text-anchor="middle" x="230.5" y="-22.8" font-family="Times,serif" font-size="14.00">UserPlugin::Init</text>
</g>
<!-- A&#45;&gt;B -->
<g id="edge1" class="edge">
<title>A&#45;&gt;B</title>
<path fill="none" stroke="black" d="M129.38,-26.5C137.69,-26.5 146.26,-26.5 154.73,-26.5"/>
<polygon fill="black" stroke="black" points="154.99,-30 164.99,-26.5 154.99,-23 154.99,-30"/>
</g>
<!-- C -->
<g id="node3" class="node">
<title>C</title>
<polygon fill="none" stroke="black" points="606,-53 332,-53 332,0 606,0 606,-53"/>
<text text-anchor="middle" x="469" y="-37.8" font-family="Times,serif" font-size="14.00">Call </text>
<text text-anchor="middle" x="469" y="-22.8" font-family="Times,serif" font-size="14.00"> UserPlugin::ProcessOutputSection </text>
<text text-anchor="middle" x="469" y="-7.8" font-family="Times,serif" font-size="14.00"> for each output section</text>
</g>
<!-- B&#45;&gt;C -->
<g id="edge2" class="edge">
<title>B&#45;&gt;C</title>
<path fill="none" stroke="black" d="M296.12,-26.5C304.27,-26.5 312.85,-26.5 321.65,-26.5"/>
<polygon fill="black" stroke="black" points="321.67,-30 331.67,-26.5 321.67,-23 321.67,-30"/>
</g>
<!-- D -->
<g id="node4" class="node">
<title>D</title>
<polygon fill="none" stroke="black" points="809,-45.5 642,-45.5 642,-7.5 809,-7.5 809,-45.5"/>
<text text-anchor="middle" x="725.5" y="-30.3" font-family="Times,serif" font-size="14.00">Call </text>
<text text-anchor="middle" x="725.5" y="-15.3" font-family="Times,serif" font-size="14.00"> UserPlugin::Destroy</text>
</g>
<!-- C&#45;&gt;D -->
<g id="edge3" class="edge">
<title>C&#45;&gt;D</title>
<path fill="none" stroke="black" d="M606.19,-26.5C614.84,-26.5 623.44,-26.5 631.83,-26.5"/>
<polygon fill="black" stroke="black" points="631.93,-30 641.93,-26.5 631.93,-23 631.93,-30"/>
</g>
<!-- E -->
<g id="node5" class="node">
<title>E</title>
<polygon fill="none" stroke="black" points="1039,-53 845,-53 845,0 1039,0 1039,-53"/>
<text text-anchor="middle" x="942" y="-37.8" font-family="Times,serif" font-size="14.00">Finalize relocations, </text>
<text text-anchor="middle" x="942" y="-22.8" font-family="Times,serif" font-size="14.00"> symbol values and then </text>
<text text-anchor="middle" x="942" y="-7.8" font-family="Times,serif" font-size="14.00"> emit output image.</text>
</g>
<!-- D&#45;&gt;E -->
<g id="edge4" class="edge">
<title>D&#45;&gt;E</title>
<path fill="none" stroke="black" d="M809.12,-26.5C817.52,-26.5 826.13,-26.5 834.74,-26.5"/>
<polygon fill="black" stroke="black" points="834.82,-30 844.82,-26.5 834.82,-23 834.82,-30"/>
</g>
</g>
</svg>
