<?xml version="1.0" encoding="UTF-8" standalone="no"?>
<!DOCTYPE svg PUBLIC "-//W3C//DTD SVG 1.1//EN"
 "http://www.w3.org/Graphics/SVG/1.1/DTD/svg11.dtd">
<!-- Generated by graphviz version 2.43.0 (0)
 -->
<!-- Title: G Pages: 1 -->
<svg width="563pt" height="44pt"
 viewBox="0.00 0.00 563.00 44.00" xmlns="http://www.w3.org/2000/svg" xmlns:xlink="http://www.w3.org/1999/xlink">
<g id="graph0" class="graph" transform="scale(1 1) rotate(0) translate(4 40)">
<title>G</title>
<polygon fill="white" stroke="transparent" points="-4,4 -4,-40 559,-40 559,4 -4,4"/>
<!-- A -->
<g id="node1" class="node">
<title>A</title>
<polygon fill="none" stroke="black" points="93,-36 0,-36 0,0 93,0 93,-36"/>
<text text-anchor="middle" x="46.5" y="-14.3" font-family="Times,serif" font-size="14.00">Initializing</text>
</g>
<!-- B -->
<g id="node2" class="node">
<title>B</title>
<polygon fill="none" stroke="black" points="242,-36 129,-36 129,0 242,0 242,-36"/>
<text text-anchor="middle" x="185.5" y="-14.3" font-family="Times,serif" font-size="14.00">BeforeLayout</text>
</g>
<!-- A&#45;&gt;B -->
<g id="edge1" class="edge">
<title>A&#45;&gt;B</title>
<path fill="none" stroke="black" d="M93.12,-18C101.29,-18 109.95,-18 118.55,-18"/>
<polygon fill="black" stroke="black" points="118.59,-21.5 128.59,-18 118.59,-14.5 118.59,-21.5"/>
</g>
<!-- C -->
<g id="node3" class="node">
<title>C</title>
<polygon fill="none" stroke="black" points="418,-36 278,-36 278,0 418,0 418,-36"/>
<text text-anchor="middle" x="348" y="-14.3" font-family="Times,serif" font-size="14.00">CreatingSections</text>
</g>
<!-- B&#45;&gt;C -->
<g id="edge2" class="edge">
<title>B&#45;&gt;C</title>
<path fill="none" stroke="black" d="M242.18,-18C250.45,-18 259.1,-18 267.73,-18"/>
<polygon fill="black" stroke="black" points="267.84,-21.5 277.84,-18 267.84,-14.5 267.84,-21.5"/>
</g>
<!-- D -->
<g id="node4" class="node">
<title>D</title>
<polygon fill="none" stroke="black" points="555,-36 454,-36 454,0 555,0 555,-36"/>
<text text-anchor="middle" x="504.5" y="-14.3" font-family="Times,serif" font-size="14.00">AfterLayout</text>
</g>
<!-- C&#45;&gt;D -->
<g id="edge3" class="edge">
<title>C&#45;&gt;D</title>
<path fill="none" stroke="black" d="M418.12,-18C426.68,-18 435.39,-18 443.8,-18"/>
<polygon fill="black" stroke="black" points="443.88,-21.5 453.88,-18 443.88,-14.5 443.88,-21.5"/>
</g>
</g>
</svg>
