<?xml version="1.0" encoding="UTF-8" standalone="no"?>
<!DOCTYPE svg PUBLIC "-//W3C//DTD SVG 1.1//EN"
 "http://www.w3.org/Graphics/SVG/1.1/DTD/svg11.dtd">
<!-- Generated by graphviz version 2.43.0 (0)
 -->
<!-- Title: G Pages: 1 -->
<svg width="321pt" height="512pt"
 viewBox="0.00 0.00 321.00 512.00" xmlns="http://www.w3.org/2000/svg" xmlns:xlink="http://www.w3.org/1999/xlink">
<g id="graph0" class="graph" transform="scale(1 1) rotate(0) translate(4 508)">
<title>G</title>
<polygon fill="white" stroke="transparent" points="-4,4 -4,-508 317,-508 317,4 -4,4"/>
<!-- A -->
<g id="node1" class="node">
<title>A</title>
<polygon fill="none" stroke="black" points="234.5,-504 78.5,-504 78.5,-468 234.5,-468 234.5,-504"/>
<text text-anchor="middle" x="156.5" y="-482.3" font-family="Times,serif" font-size="14.00">Initialize the plugin</text>
</g>
<!-- B -->
<g id="node2" class="node">
<title>B</title>
<polygon fill="none" stroke="black" points="313,-432 0,-432 0,-394 313,-394 313,-432"/>
<text text-anchor="middle" x="156.5" y="-416.8" font-family="Times,serif" font-size="14.00">Process input files, and perform garbage </text>
<text text-anchor="middle" x="156.5" y="-401.8" font-family="Times,serif" font-size="14.00"> collection on sections</text>
</g>
<!-- A&#45;&gt;B -->
<g id="edge1" class="edge">
<title>A&#45;&gt;B</title>
<path fill="none" stroke="black" d="M156.5,-467.81C156.5,-460.11 156.5,-450.82 156.5,-442.15"/>
<polygon fill="black" stroke="black" points="160,-442.02 156.5,-432.02 153,-442.02 160,-442.02"/>
</g>
<!-- C -->
<g id="node3" class="node">
<title>C</title>
<polygon fill="none" stroke="black" points="234,-358 79,-358 79,-322 234,-322 234,-358"/>
<text text-anchor="middle" x="156.5" y="-336.3" font-family="Times,serif" font-size="14.00">UserPlugin::Init(...)</text>
</g>
<!-- B&#45;&gt;C -->
<g id="edge2" class="edge">
<title>B&#45;&gt;C</title>
<path fill="none" stroke="black" d="M156.5,-393.72C156.5,-385.97 156.5,-376.79 156.5,-368.27"/>
<polygon fill="black" stroke="black" points="160,-368 156.5,-358 153,-368 160,-368"/>
</g>
<!-- D -->
<g id="node4" class="node">
<title>D</title>
<polygon fill="none" stroke="black" points="280.5,-286 32.5,-286 32.5,-218 280.5,-218 280.5,-286"/>
<text text-anchor="middle" x="156.5" y="-270.8" font-family="Times,serif" font-size="14.00">call </text>
<text text-anchor="middle" x="156.5" y="-255.8" font-family="Times,serif" font-size="14.00"> UserPlugin::ProcessSection(...) </text>
<text text-anchor="middle" x="156.5" y="-240.8" font-family="Times,serif" font-size="14.00"> for each input section that is </text>
<text text-anchor="middle" x="156.5" y="-225.8" font-family="Times,serif" font-size="14.00"> not garbage&#45;collected</text>
</g>
<!-- C&#45;&gt;D -->
<g id="edge3" class="edge">
<title>C&#45;&gt;D</title>
<path fill="none" stroke="black" d="M156.5,-321.6C156.5,-314.18 156.5,-305.16 156.5,-296.14"/>
<polygon fill="black" stroke="black" points="160,-296.03 156.5,-286.03 153,-296.03 160,-296.03"/>
</g>
<!-- E -->
<g id="node5" class="node">
<title>E</title>
<polygon fill="none" stroke="black" points="235.5,-182 77.5,-182 77.5,-146 235.5,-146 235.5,-182"/>
<text text-anchor="middle" x="156.5" y="-160.3" font-family="Times,serif" font-size="14.00">UserPlugin::Run(...)</text>
</g>
<!-- D&#45;&gt;E -->
<g id="edge4" class="edge">
<title>D&#45;&gt;E</title>
<path fill="none" stroke="black" d="M156.5,-218C156.5,-209.56 156.5,-200.59 156.5,-192.47"/>
<polygon fill="black" stroke="black" points="160,-192.4 156.5,-182.4 153,-192.4 160,-192.4"/>
</g>
<!-- F -->
<g id="node6" class="node">
<title>F</title>
<polygon fill="none" stroke="black" points="249.5,-110 63.5,-110 63.5,-74 249.5,-74 249.5,-110"/>
<text text-anchor="middle" x="156.5" y="-88.3" font-family="Times,serif" font-size="14.00">UserPlugin::Destroy(...)</text>
</g>
<!-- E&#45;&gt;F -->
<g id="edge5" class="edge">
<title>E&#45;&gt;F</title>
<path fill="none" stroke="black" d="M156.5,-145.7C156.5,-137.98 156.5,-128.71 156.5,-120.11"/>
<polygon fill="black" stroke="black" points="160,-120.1 156.5,-110.1 153,-120.1 160,-120.1"/>
</g>
<!-- G -->
<g id="node7" class="node">
<title>G</title>
<polygon fill="none" stroke="black" points="240,-38 73,-38 73,0 240,0 240,-38"/>
<text text-anchor="middle" x="156.5" y="-22.8" font-family="Times,serif" font-size="14.00">Continue the linking </text>
<text text-anchor="middle" x="156.5" y="-7.8" font-family="Times,serif" font-size="14.00"> Process</text>
</g>
<!-- F&#45;&gt;G -->
<g id="edge6" class="edge">
<title>F&#45;&gt;G</title>
<path fill="none" stroke="black" d="M156.5,-73.81C156.5,-66.11 156.5,-56.82 156.5,-48.15"/>
<polygon fill="black" stroke="black" points="160,-48.02 156.5,-38.02 153,-48.02 160,-48.02"/>
</g>
</g>
</svg>
