<?xml version="1.0" encoding="UTF-8" standalone="no"?>
<!DOCTYPE svg PUBLIC "-//W3C//DTD SVG 1.1//EN"
 "http://www.w3.org/Graphics/SVG/1.1/DTD/svg11.dtd">
<!-- Generated by graphviz version 2.43.0 (0)
 -->
<!-- Title: G Pages: 1 -->
<svg width="828pt" height="61pt"
 viewBox="0.00 0.00 828.00 61.00" xmlns="http://www.w3.org/2000/svg" xmlns:xlink="http://www.w3.org/1999/xlink">
<g id="graph0" class="graph" transform="scale(1 1) rotate(0) translate(4 57)">
<title>G</title>
<polygon fill="white" stroke="transparent" points="-4,4 -4,-57 824,-57 824,4 -4,4"/>
<!-- A -->
<g id="node1" class="node">
<title>A</title>
<polygon fill="none" stroke="black" points="83,-53 0,-53 0,0 83,0 83,-53"/>
<text text-anchor="middle" x="41.5" y="-37.8" font-family="Times,serif" font-size="14.00">Creating </text>
<text text-anchor="middle" x="41.5" y="-22.8" font-family="Times,serif" font-size="14.00"> output </text>
<text text-anchor="middle" x="41.5" y="-7.8" font-family="Times,serif" font-size="14.00"> sections</text>
</g>
<!-- B -->
<g id="node2" class="node">
<title>B</title>
<polygon fill="none" stroke="black" points="225,-45.5 119,-45.5 119,-7.5 225,-7.5 225,-45.5"/>
<text text-anchor="middle" x="172" y="-30.3" font-family="Times,serif" font-size="14.00">UserPlugin::</text>
<text text-anchor="middle" x="172" y="-15.3" font-family="Times,serif" font-size="14.00">Init</text>
</g>
<!-- A&#45;&gt;B -->
<g id="edge1" class="edge">
<title>A&#45;&gt;B</title>
<path fill="none" stroke="black" d="M83.16,-26.5C91.3,-26.5 100.02,-26.5 108.7,-26.5"/>
<polygon fill="black" stroke="black" points="108.83,-30 118.83,-26.5 108.83,-23 108.83,-30"/>
</g>
<!-- C -->
<g id="node3" class="node">
<title>C</title>
<polygon fill="none" stroke="black" points="371,-45.5 261,-45.5 261,-7.5 371,-7.5 371,-45.5"/>
<text text-anchor="middle" x="316" y="-30.3" font-family="Times,serif" font-size="14.00">UserPlugin:: </text>
<text text-anchor="middle" x="316" y="-15.3" font-family="Times,serif" font-size="14.00"> AddBlocks</text>
</g>
<!-- B&#45;&gt;C -->
<g id="edge2" class="edge">
<title>B&#45;&gt;C</title>
<path fill="none" stroke="black" d="M225.07,-26.5C233.29,-26.5 241.87,-26.5 250.33,-26.5"/>
<polygon fill="black" stroke="black" points="250.55,-30 260.55,-26.5 250.55,-23 250.55,-30"/>
</g>
<!-- D -->
<g id="node4" class="node">
<title>D</title>
<polygon fill="none" stroke="black" points="513,-45.5 407,-45.5 407,-7.5 513,-7.5 513,-45.5"/>
<text text-anchor="middle" x="460" y="-30.3" font-family="Times,serif" font-size="14.00">UserPlugin::</text>
<text text-anchor="middle" x="460" y="-15.3" font-family="Times,serif" font-size="14.00">Run</text>
</g>
<!-- C&#45;&gt;D -->
<g id="edge3" class="edge">
<title>C&#45;&gt;D</title>
<path fill="none" stroke="black" d="M371.09,-26.5C379.45,-26.5 388.14,-26.5 396.66,-26.5"/>
<polygon fill="black" stroke="black" points="396.94,-30 406.94,-26.5 396.94,-23 396.94,-30"/>
</g>
<!-- E -->
<g id="node5" class="node">
<title>E</title>
<polygon fill="none" stroke="black" points="655,-45.5 549,-45.5 549,-7.5 655,-7.5 655,-45.5"/>
<text text-anchor="middle" x="602" y="-30.3" font-family="Times,serif" font-size="14.00">UserPlugin::</text>
<text text-anchor="middle" x="602" y="-15.3" font-family="Times,serif" font-size="14.00"> Destroy</text>
</g>
<!-- D&#45;&gt;E -->
<g id="edge4" class="edge">
<title>D&#45;&gt;E</title>
<path fill="none" stroke="black" d="M513.13,-26.5C521.42,-26.5 530.07,-26.5 538.57,-26.5"/>
<polygon fill="black" stroke="black" points="538.83,-30 548.83,-26.5 538.83,-23 538.83,-30"/>
</g>
<!-- F -->
<g id="node6" class="node">
<title>F</title>
<polygon fill="none" stroke="black" points="820,-45.5 691,-45.5 691,-7.5 820,-7.5 820,-45.5"/>
<text text-anchor="middle" x="755.5" y="-30.3" font-family="Times,serif" font-size="14.00">Finalize output </text>
<text text-anchor="middle" x="755.5" y="-15.3" font-family="Times,serif" font-size="14.00"> image layout</text>
</g>
<!-- E&#45;&gt;F -->
<g id="edge5" class="edge">
<title>E&#45;&gt;F</title>
<path fill="none" stroke="black" d="M655.14,-26.5C663.38,-26.5 672.04,-26.5 680.66,-26.5"/>
<polygon fill="black" stroke="black" points="680.75,-30 690.75,-26.5 680.75,-23 680.75,-30"/>
</g>
</g>
</svg>
