<?xml version="1.0" encoding="UTF-8" standalone="no"?>
<!DOCTYPE svg PUBLIC "-//W3C//DTD SVG 1.1//EN"
 "http://www.w3.org/Graphics/SVG/1.1/DTD/svg11.dtd">
<!-- Generated by graphviz version 2.43.0 (0)
 -->
<!-- Title: G Pages: 1 -->
<svg width="256pt" height="499pt"
 viewBox="0.00 0.00 256.00 499.00" xmlns="http://www.w3.org/2000/svg" xmlns:xlink="http://www.w3.org/1999/xlink">
<g id="graph0" class="graph" transform="scale(1 1) rotate(0) translate(4 495)">
<title>G</title>
<polygon fill="white" stroke="transparent" points="-4,4 -4,-495 252,-495 252,4 -4,4"/>
<!-- A -->
<g id="node1" class="node">
<title>A</title>
<polygon fill="none" stroke="black" points="192.5,-491 55.5,-491 55.5,-453 192.5,-453 192.5,-491"/>
<text text-anchor="middle" x="124" y="-475.8" font-family="Times,serif" font-size="14.00">Perform Section </text>
<text text-anchor="middle" x="124" y="-460.8" font-family="Times,serif" font-size="14.00"> rule&#45;matching</text>
</g>
<!-- B -->
<g id="node2" class="node">
<title>B</title>
<polygon fill="none" stroke="black" points="201.5,-417 46.5,-417 46.5,-381 201.5,-381 201.5,-417"/>
<text text-anchor="middle" x="124" y="-395.3" font-family="Times,serif" font-size="14.00">UserPlugin::Init(...)</text>
</g>
<!-- A&#45;&gt;B -->
<g id="edge1" class="edge">
<title>A&#45;&gt;B</title>
<path fill="none" stroke="black" d="M124,-452.72C124,-444.97 124,-435.79 124,-427.27"/>
<polygon fill="black" stroke="black" points="127.5,-427 124,-417 120.5,-427 127.5,-427"/>
</g>
<!-- C -->
<g id="node3" class="node">
<title>C</title>
<polygon fill="none" stroke="black" points="248,-345 0,-345 0,-292 248,-292 248,-345"/>
<text text-anchor="middle" x="124" y="-329.8" font-family="Times,serif" font-size="14.00">Call </text>
<text text-anchor="middle" x="124" y="-314.8" font-family="Times,serif" font-size="14.00"> UserPlugin::ProcessSection(...) </text>
<text text-anchor="middle" x="124" y="-299.8" font-family="Times,serif" font-size="14.00"> for each input section</text>
</g>
<!-- B&#45;&gt;C -->
<g id="edge2" class="edge">
<title>B&#45;&gt;C</title>
<path fill="none" stroke="black" d="M124,-380.97C124,-373.45 124,-364.31 124,-355.4"/>
<polygon fill="black" stroke="black" points="127.5,-355.16 124,-345.16 120.5,-355.16 127.5,-355.16"/>
</g>
<!-- D -->
<g id="node4" class="node">
<title>D</title>
<polygon fill="none" stroke="black" points="201.5,-256 46.5,-256 46.5,-220 201.5,-220 201.5,-256"/>
<text text-anchor="middle" x="124" y="-234.3" font-family="Times,serif" font-size="14.00">UserPlugin::run(...)</text>
</g>
<!-- C&#45;&gt;D -->
<g id="edge3" class="edge">
<title>C&#45;&gt;D</title>
<path fill="none" stroke="black" d="M124,-291.8C124,-283.71 124,-274.76 124,-266.55"/>
<polygon fill="black" stroke="black" points="127.5,-266.33 124,-256.33 120.5,-266.33 127.5,-266.33"/>
</g>
<!-- E -->
<g id="node5" class="node">
<title>E</title>
<polygon fill="none" stroke="black" points="217,-184 31,-184 31,-148 217,-148 217,-184"/>
<text text-anchor="middle" x="124" y="-162.3" font-family="Times,serif" font-size="14.00">UserPlugin::Destroy(...)</text>
</g>
<!-- D&#45;&gt;E -->
<g id="edge4" class="edge">
<title>D&#45;&gt;E</title>
<path fill="none" stroke="black" d="M124,-219.7C124,-211.98 124,-202.71 124,-194.11"/>
<polygon fill="black" stroke="black" points="127.5,-194.1 124,-184.1 120.5,-194.1 127.5,-194.1"/>
</g>
<!-- F -->
<g id="node6" class="node">
<title>F</title>
<polygon fill="none" stroke="black" points="195,-112 53,-112 53,-74 195,-74 195,-112"/>
<text text-anchor="middle" x="124" y="-96.8" font-family="Times,serif" font-size="14.00">Perform garbage </text>
<text text-anchor="middle" x="124" y="-81.8" font-family="Times,serif" font-size="14.00"> collection</text>
</g>
<!-- E&#45;&gt;F -->
<g id="edge5" class="edge">
<title>E&#45;&gt;F</title>
<path fill="none" stroke="black" d="M124,-147.81C124,-140.11 124,-130.82 124,-122.15"/>
<polygon fill="black" stroke="black" points="127.5,-122.02 124,-112.02 120.5,-122.02 127.5,-122.02"/>
</g>
<!-- G -->
<g id="node7" class="node">
<title>G</title>
<polygon fill="none" stroke="black" points="207.5,-38 40.5,-38 40.5,0 207.5,0 207.5,-38"/>
<text text-anchor="middle" x="124" y="-22.8" font-family="Times,serif" font-size="14.00">Continue the linking </text>
<text text-anchor="middle" x="124" y="-7.8" font-family="Times,serif" font-size="14.00"> Process</text>
</g>
<!-- F&#45;&gt;G -->
<g id="edge6" class="edge">
<title>F&#45;&gt;G</title>
<path fill="none" stroke="black" d="M124,-73.83C124,-66.13 124,-56.97 124,-48.42"/>
<polygon fill="black" stroke="black" points="127.5,-48.41 124,-38.41 120.5,-48.41 127.5,-48.41"/>
</g>
</g>
</svg>
