<?xml version="1.0" encoding="UTF-8" standalone="no"?>
<!DOCTYPE svg PUBLIC "-//W3C//DTD SVG 1.1//EN"
 "http://www.w3.org/Graphics/SVG/1.1/DTD/svg11.dtd">
<!-- Generated by graphviz version 2.43.0 (0)
 -->
<!-- Title: G Pages: 1 -->
<svg width="443pt" height="836pt"
 viewBox="0.00 0.00 442.69 836.00" xmlns="http://www.w3.org/2000/svg" xmlns:xlink="http://www.w3.org/1999/xlink">
<g id="graph0" class="graph" transform="scale(1 1) rotate(0) translate(4 832)">
<title>G</title>
<polygon fill="white" stroke="transparent" points="-4,4 -4,-832 438.69,-832 438.69,4 -4,4"/>
<!-- Setup -->
<g id="node1" class="node">
<title>Setup</title>
<polygon fill="none" stroke="black" points="104.5,-828 45.5,-828 45.5,-792 104.5,-792 104.5,-828"/>
<text text-anchor="middle" x="75" y="-806.3" font-family="Times,serif" font-size="14.00">Setup</text>
</g>
<!-- LoadLinkerPlugins -->
<g id="node2" class="node">
<title>LoadLinkerPlugins</title>
<polygon fill="none" stroke="black" points="150,-756 0,-756 0,-720 150,-720 150,-756"/>
<text text-anchor="middle" x="75" y="-734.3" font-family="Times,serif" font-size="14.00">LoadLinkerPlugins</text>
</g>
<!-- Setup&#45;&gt;LoadLinkerPlugins -->
<g id="edge1" class="edge">
<title>Setup&#45;&gt;LoadLinkerPlugins</title>
<path fill="none" stroke="black" d="M75,-791.83C75,-791.83 75,-766.41 75,-766.41"/>
<polygon fill="black" stroke="black" points="78.5,-766.41 75,-756.41 71.5,-766.41 78.5,-766.41"/>
</g>
<!-- in1 -->
<g id="node3" class="node">
<title>in1</title>
<ellipse fill="black" stroke="black" cx="75" cy="-666" rx="1.8" ry="1.8"/>
</g>
<!-- LoadLinkerPlugins&#45;&gt;in1 -->
<g id="edge2" class="edge">
<title>LoadLinkerPlugins&#45;&gt;in1</title>
<path fill="none" stroke="black" d="M75,-719.83C75,-701.5 75,-674.92 75,-667.81"/>
</g>
<!-- ReadInputs -->
<g id="node4" class="node">
<title>ReadInputs</title>
<polygon fill="none" stroke="black" points="124,-612 26,-612 26,-576 124,-576 124,-612"/>
<text text-anchor="middle" x="75" y="-590.3" font-family="Times,serif" font-size="14.00">ReadInputs</text>
</g>
<!-- in1&#45;&gt;ReadInputs -->
<g id="edge3" class="edge">
<title>in1&#45;&gt;ReadInputs</title>
<path fill="none" stroke="black" d="M75,-663.92C75,-663.92 75,-622 75,-622"/>
<polygon fill="black" stroke="black" points="78.5,-622 75,-612 71.5,-622 78.5,-622"/>
</g>
<!-- Init -->
<g id="node13" class="node">
<title>Init</title>
<ellipse fill="none" stroke="black" cx="193" cy="-666" rx="27" ry="18"/>
<text text-anchor="middle" x="193" y="-662.3" font-family="Times,serif" font-size="14.00">Init</text>
</g>
<!-- in1&#45;&gt;Init -->
<g id="edge12" class="edge">
<title>in1&#45;&gt;Init</title>
<path fill="none" stroke="black" d="M77.05,-666C77.05,-666 155.78,-666 155.78,-666"/>
<polygon fill="black" stroke="black" points="155.78,-669.5 165.78,-666 155.78,-662.5 155.78,-669.5"/>
</g>
<!-- in3 -->
<g id="node5" class="node">
<title>in3</title>
<ellipse fill="black" stroke="black" cx="75" cy="-522" rx="1.8" ry="1.8"/>
</g>
<!-- ReadInputs&#45;&gt;in3 -->
<g id="edge4" class="edge">
<title>ReadInputs&#45;&gt;in3</title>
<path fill="none" stroke="black" d="M75,-575.83C75,-575.83 75,-533.81 75,-533.81"/>
<polygon fill="black" stroke="black" points="78.5,-533.81 75,-523.81 71.5,-533.81 78.5,-533.81"/>
</g>
<!-- VisitSectionsAndSymbols -->
<g id="node14" class="node">
<title>VisitSectionsAndSymbols</title>
<ellipse fill="none" stroke="black" cx="306" cy="-594" rx="128.88" ry="18"/>
<text text-anchor="middle" x="306" y="-590.3" font-family="Times,serif" font-size="14.00">VisitSectionsAndSymbols</text>
</g>
<!-- ReadInputs&#45;&gt;VisitSectionsAndSymbols -->
<g id="edge13" class="edge">
<title>ReadInputs&#45;&gt;VisitSectionsAndSymbols</title>
<path fill="none" stroke="black" d="M124.27,-594C124.27,-594 167.03,-594 167.03,-594"/>
<polygon fill="black" stroke="black" points="167.03,-597.5 177.03,-594 167.03,-590.5 167.03,-597.5"/>
</g>
<!-- RuleMatching -->
<g id="node6" class="node">
<title>RuleMatching</title>
<polygon fill="none" stroke="black" points="133,-468 17,-468 17,-432 133,-432 133,-468"/>
<text text-anchor="middle" x="75" y="-446.3" font-family="Times,serif" font-size="14.00">RuleMatching</text>
</g>
<!-- in3&#45;&gt;RuleMatching -->
<g id="edge5" class="edge">
<title>in3&#45;&gt;RuleMatching</title>
<path fill="none" stroke="black" d="M75,-519.92C75,-519.92 75,-478 75,-478"/>
<polygon fill="black" stroke="black" points="78.5,-478 75,-468 71.5,-478 78.5,-478"/>
</g>
<!-- BeforeRuleMatching -->
<g id="node15" class="node">
<title>BeforeRuleMatching</title>
<ellipse fill="none" stroke="black" cx="273" cy="-522" rx="106.68" ry="18"/>
<text text-anchor="middle" x="273" y="-518.3" font-family="Times,serif" font-size="14.00">BeforeRuleMatching</text>
</g>
<!-- in3&#45;&gt;BeforeRuleMatching -->
<g id="edge14" class="edge">
<title>in3&#45;&gt;BeforeRuleMatching</title>
<path fill="none" stroke="black" d="M77.22,-522C77.22,-522 156.16,-522 156.16,-522"/>
<polygon fill="black" stroke="black" points="156.16,-525.5 166.16,-522 156.16,-518.5 156.16,-525.5"/>
</g>
<!-- in4 -->
<g id="node7" class="node">
<title>in4</title>
<ellipse fill="black" stroke="black" cx="75" cy="-378" rx="1.8" ry="1.8"/>
</g>
<!-- RuleMatching&#45;&gt;in4 -->
<g id="edge6" class="edge">
<title>RuleMatching&#45;&gt;in4</title>
<path fill="none" stroke="black" d="M75,-431.83C75,-431.83 75,-389.81 75,-389.81"/>
<polygon fill="black" stroke="black" points="78.5,-389.81 75,-379.81 71.5,-389.81 78.5,-389.81"/>
</g>
<!-- SectionMerging -->
<g id="node8" class="node">
<title>SectionMerging</title>
<polygon fill="none" stroke="black" points="140.5,-324 9.5,-324 9.5,-288 140.5,-288 140.5,-324"/>
<text text-anchor="middle" x="75" y="-302.3" font-family="Times,serif" font-size="14.00">SectionMerging</text>
</g>
<!-- in4&#45;&gt;SectionMerging -->
<g id="edge7" class="edge">
<title>in4&#45;&gt;SectionMerging</title>
<path fill="none" stroke="black" d="M75,-375.92C75,-375.92 75,-334 75,-334"/>
<polygon fill="black" stroke="black" points="78.5,-334 75,-324 71.5,-334 78.5,-334"/>
</g>
<!-- BeforeSectionMerging -->
<g id="node16" class="node">
<title>BeforeSectionMerging</title>
<ellipse fill="none" stroke="black" cx="282" cy="-378" rx="115.88" ry="18"/>
<text text-anchor="middle" x="282" y="-374.3" font-family="Times,serif" font-size="14.00">BeforeSectionMerging</text>
</g>
<!-- in4&#45;&gt;BeforeSectionMerging -->
<g id="edge15" class="edge">
<title>in4&#45;&gt;BeforeSectionMerging</title>
<path fill="none" stroke="black" d="M77.32,-378C77.32,-378 156.06,-378 156.06,-378"/>
<polygon fill="black" stroke="black" points="156.06,-381.5 166.06,-378 156.06,-374.5 156.06,-381.5"/>
</g>
<!-- in5 -->
<g id="node9" class="node">
<title>in5</title>
<ellipse fill="black" stroke="black" cx="75" cy="-234" rx="1.8" ry="1.8"/>
</g>
<!-- SectionMerging&#45;&gt;in5 -->
<g id="edge8" class="edge">
<title>SectionMerging&#45;&gt;in5</title>
<path fill="none" stroke="black" d="M75,-287.83C75,-287.83 75,-245.81 75,-245.81"/>
<polygon fill="black" stroke="black" points="78.5,-245.81 75,-235.81 71.5,-245.81 78.5,-245.81"/>
</g>
<!-- PerformLayout -->
<g id="node10" class="node">
<title>PerformLayout</title>
<polygon fill="none" stroke="black" points="136.5,-180 13.5,-180 13.5,-144 136.5,-144 136.5,-180"/>
<text text-anchor="middle" x="75" y="-158.3" font-family="Times,serif" font-size="14.00">PerformLayout</text>
</g>
<!-- in5&#45;&gt;PerformLayout -->
<g id="edge9" class="edge">
<title>in5&#45;&gt;PerformLayout</title>
<path fill="none" stroke="black" d="M75,-231.92C75,-231.92 75,-190 75,-190"/>
<polygon fill="black" stroke="black" points="78.5,-190 75,-180 71.5,-190 78.5,-190"/>
</g>
<!-- BeforePerformingLayout -->
<g id="node17" class="node">
<title>BeforePerformingLayout</title>
<ellipse fill="none" stroke="black" cx="292" cy="-234" rx="125.38" ry="18"/>
<text text-anchor="middle" x="292" y="-230.3" font-family="Times,serif" font-size="14.00">BeforePerformingLayout</text>
</g>
<!-- in5&#45;&gt;BeforePerformingLayout -->
<g id="edge16" class="edge">
<title>in5&#45;&gt;BeforePerformingLayout</title>
<path fill="none" stroke="black" d="M76.88,-234C76.88,-234 156.32,-234 156.32,-234"/>
<polygon fill="black" stroke="black" points="156.32,-237.5 166.32,-234 156.32,-230.5 156.32,-237.5"/>
</g>
<!-- in6 -->
<g id="node11" class="node">
<title>in6</title>
<ellipse fill="black" stroke="black" cx="75" cy="-90" rx="1.8" ry="1.8"/>
</g>
<!-- PerformLayout&#45;&gt;in6 -->
<g id="edge10" class="edge">
<title>PerformLayout&#45;&gt;in6</title>
<path fill="none" stroke="black" d="M75,-143.83C75,-143.83 75,-101.81 75,-101.81"/>
<polygon fill="black" stroke="black" points="78.5,-101.81 75,-91.81 71.5,-101.81 78.5,-101.81"/>
</g>
<!-- WriteOutput -->
<g id="node12" class="node">
<title>WriteOutput</title>
<polygon fill="none" stroke="black" points="128,-36 22,-36 22,0 128,0 128,-36"/>
<text text-anchor="middle" x="75" y="-14.3" font-family="Times,serif" font-size="14.00">WriteOutput</text>
</g>
<!-- in6&#45;&gt;WriteOutput -->
<g id="edge11" class="edge">
<title>in6&#45;&gt;WriteOutput</title>
<path fill="none" stroke="black" d="M75,-87.92C75,-87.92 75,-46 75,-46"/>
<polygon fill="black" stroke="black" points="78.5,-46 75,-36 71.5,-46 78.5,-46"/>
</g>
<!-- BeforeWritingOutput -->
<g id="node18" class="node">
<title>BeforeWritingOutput</title>
<ellipse fill="none" stroke="black" cx="275" cy="-90" rx="108.58" ry="18"/>
<text text-anchor="middle" x="275" y="-86.3" font-family="Times,serif" font-size="14.00">BeforeWritingOutput</text>
</g>
<!-- in6&#45;&gt;BeforeWritingOutput -->
<g id="edge17" class="edge">
<title>in6&#45;&gt;BeforeWritingOutput</title>
<path fill="none" stroke="black" d="M77.25,-90C77.25,-90 156.26,-90 156.26,-90"/>
<polygon fill="black" stroke="black" points="156.26,-93.5 166.26,-90 156.26,-86.5 156.26,-93.5"/>
</g>
</g>
</svg>
