<?xml version="1.0" encoding="UTF-8" standalone="no"?>
<!DOCTYPE svg PUBLIC "-//W3C//DTD SVG 1.1//EN"
 "http://www.w3.org/Graphics/SVG/1.1/DTD/svg11.dtd">
<!-- Generated by graphviz version 2.43.0 (0)
 -->
<!-- Title: G Pages: 1 -->
<svg width="331pt" height="527pt"
 viewBox="0.00 0.00 331.00 527.00" xmlns="http://www.w3.org/2000/svg" xmlns:xlink="http://www.w3.org/1999/xlink">
<g id="graph0" class="graph" transform="scale(1 1) rotate(0) translate(4 523)">
<title>G</title>
<polygon fill="white" stroke="transparent" points="-4,4 -4,-523 327,-523 327,4 -4,4"/>
<!-- A -->
<g id="node1" class="node">
<title>A</title>
<polygon fill="none" stroke="black" points="225.5,-519 97.5,-519 97.5,-483 225.5,-483 225.5,-519"/>
<text text-anchor="middle" x="161.5" y="-497.3" font-family="Times,serif" font-size="14.00">Initialize plugin</text>
</g>
<!-- B -->
<g id="node2" class="node">
<title>B</title>
<polygon fill="none" stroke="black" points="221,-447 102,-447 102,-409 221,-409 221,-447"/>
<text text-anchor="middle" x="161.5" y="-431.8" font-family="Times,serif" font-size="14.00">Process input </text>
<text text-anchor="middle" x="161.5" y="-416.8" font-family="Times,serif" font-size="14.00"> sections</text>
</g>
<!-- A&#45;&gt;B -->
<g id="edge1" class="edge">
<title>A&#45;&gt;B</title>
<path fill="none" stroke="black" d="M161.5,-482.81C161.5,-475.11 161.5,-465.82 161.5,-457.15"/>
<polygon fill="black" stroke="black" points="165,-457.02 161.5,-447.02 158,-457.02 165,-457.02"/>
</g>
<!-- C -->
<g id="node3" class="node">
<title>C</title>
<polygon fill="none" stroke="black" points="239,-373 84,-373 84,-337 239,-337 239,-373"/>
<text text-anchor="middle" x="161.5" y="-351.3" font-family="Times,serif" font-size="14.00">UserPlugin::Init(...)</text>
</g>
<!-- B&#45;&gt;C -->
<g id="edge2" class="edge">
<title>B&#45;&gt;C</title>
<path fill="none" stroke="black" d="M161.5,-408.72C161.5,-400.97 161.5,-391.79 161.5,-383.27"/>
<polygon fill="black" stroke="black" points="165,-383 161.5,-373 158,-383 165,-383"/>
</g>
<!-- D -->
<g id="node4" class="node">
<title>D</title>
<polygon fill="none" stroke="black" points="323,-301 0,-301 0,-248 323,-248 323,-301"/>
<text text-anchor="middle" x="161.5" y="-285.8" font-family="Times,serif" font-size="14.00">call UserPlugin::ProcessOutputSection(...) </text>
<text text-anchor="middle" x="161.5" y="-270.8" font-family="Times,serif" font-size="14.00"> for each output </text>
<text text-anchor="middle" x="161.5" y="-255.8" font-family="Times,serif" font-size="14.00"> section</text>
</g>
<!-- C&#45;&gt;D -->
<g id="edge3" class="edge">
<title>C&#45;&gt;D</title>
<path fill="none" stroke="black" d="M161.5,-336.97C161.5,-329.45 161.5,-320.31 161.5,-311.4"/>
<polygon fill="black" stroke="black" points="165,-311.16 161.5,-301.16 158,-311.16 165,-311.16"/>
</g>
<!-- E -->
<g id="node5" class="node">
<title>E</title>
<polygon fill="none" stroke="black" points="240.5,-212 82.5,-212 82.5,-176 240.5,-176 240.5,-212"/>
<text text-anchor="middle" x="161.5" y="-190.3" font-family="Times,serif" font-size="14.00">UserPlugin::Run(...)</text>
</g>
<!-- D&#45;&gt;E -->
<g id="edge4" class="edge">
<title>D&#45;&gt;E</title>
<path fill="none" stroke="black" d="M161.5,-247.8C161.5,-239.71 161.5,-230.76 161.5,-222.55"/>
<polygon fill="black" stroke="black" points="165,-222.33 161.5,-212.33 158,-222.33 165,-222.33"/>
</g>
<!-- F -->
<g id="node6" class="node">
<title>F</title>
<polygon fill="none" stroke="black" points="254.5,-140 68.5,-140 68.5,-104 254.5,-104 254.5,-140"/>
<text text-anchor="middle" x="161.5" y="-118.3" font-family="Times,serif" font-size="14.00">UserPlugin::Destroy(...)</text>
</g>
<!-- E&#45;&gt;F -->
<g id="edge5" class="edge">
<title>E&#45;&gt;F</title>
<path fill="none" stroke="black" d="M161.5,-175.7C161.5,-167.98 161.5,-158.71 161.5,-150.11"/>
<polygon fill="black" stroke="black" points="165,-150.1 161.5,-140.1 158,-150.1 165,-150.1"/>
</g>
<!-- G -->
<g id="node7" class="node">
<title>G</title>
<polygon fill="none" stroke="black" points="252.5,-68 70.5,-68 70.5,0 252.5,0 252.5,-68"/>
<text text-anchor="middle" x="161.5" y="-52.8" font-family="Times,serif" font-size="14.00">Merge input sections </text>
<text text-anchor="middle" x="161.5" y="-37.8" font-family="Times,serif" font-size="14.00"> based on rules and </text>
<text text-anchor="middle" x="161.5" y="-22.8" font-family="Times,serif" font-size="14.00"> create missing output </text>
<text text-anchor="middle" x="161.5" y="-7.8" font-family="Times,serif" font-size="14.00"> sections</text>
</g>
<!-- F&#45;&gt;G -->
<g id="edge6" class="edge">
<title>F&#45;&gt;G</title>
<path fill="none" stroke="black" d="M161.5,-103.6C161.5,-96.18 161.5,-87.16 161.5,-78.14"/>
<polygon fill="black" stroke="black" points="165,-78.03 161.5,-68.03 158,-78.03 165,-78.03"/>
</g>
</g>
</svg>
